<svg width="501" height="132" viewBox="0 0 501 132" fill="none" xmlns="http://www.w3.org/2000/svg">
<g id="logo-02 1">
<g id="Logo">
<g id="Group 3">
<g id="Group 2">
<path id="Path 3" fill-rule="evenodd" clip-rule="evenodd" d="M131 0C133.209 0 135 1.79086 135 4V127.649C135 129.858 133.209 131.649 131 131.649H4C1.79086 131.649 0 129.858 0 127.649V4C0 1.79086 1.79086 0 4 0H131Z" fill="#00A59A"/>
<path id="Path 2" fill-rule="evenodd" clip-rule="evenodd" d="M88.4051 81.2978H103.592C103.678 81.2978 103.754 81.2435 103.782 81.1626L108.919 66.1546C108.92 66.1521 108.921 66.1497 108.922 66.1472L113.375 51.2615C113.39 51.2102 113.384 51.1549 113.358 51.108L112.713 49.9315C112.678 49.8674 112.611 49.8276 112.538 49.8276H93.909C93.8111 49.8276 93.7276 49.8985 93.7117 49.995L91.0423 66.1485C91.042 66.1501 91.0418 66.1517 91.0415 66.1533L88.2086 81.0605C88.188 81.169 88.2593 81.2737 88.3678 81.2943C88.3801 81.2967 88.3926 81.2978 88.4051 81.2978Z" fill="white"/>
<path id="Path 2_2" fill-rule="evenodd" clip-rule="evenodd" d="M54.2049 81.2978H69.3278C69.4132 81.2978 69.4891 81.2437 69.5169 81.163L74.6896 66.1546C74.6905 66.1521 74.6913 66.1496 74.6921 66.1471L79.1751 51.262C79.1906 51.2104 79.1847 51.1547 79.1587 51.1076L78.509 49.931C78.4738 49.8672 78.4067 49.8276 78.3339 49.8276H59.5762C59.4784 49.8276 59.3949 49.8983 59.3789 49.9948L56.6911 66.1496C56.691 66.1505 56.6908 66.1513 56.6907 66.1522L54.0081 81.0624C53.9885 81.1711 54.0608 81.2751 54.1695 81.2947C54.1812 81.2968 54.193 81.2978 54.2049 81.2978Z" fill="white"/>
<path id="Path 2_3" fill-rule="evenodd" clip-rule="evenodd" d="M20.9051 81.2978H36.0923C36.1778 81.2978 36.2538 81.2435 36.2815 81.1626L41.4192 66.1546C41.4201 66.1521 41.4209 66.1497 41.4216 66.1472L45.8746 51.2615C45.8899 51.2102 45.8841 51.1549 45.8583 51.108L45.2131 49.9315C45.1779 49.8674 45.1107 49.8276 45.0377 49.8276H26.409C26.3111 49.8276 26.2276 49.8985 26.2117 49.995L23.5423 66.1485C23.542 66.1501 23.5418 66.1517 23.5415 66.1533L20.7086 81.0605C20.688 81.169 20.7593 81.2737 20.8678 81.2943C20.8801 81.2967 20.8926 81.2978 20.9051 81.2978Z" fill="white"/>
</g>
<path id="Fill 26" fill-rule="evenodd" clip-rule="evenodd" d="M171.418 94.8435C164.808 94.8435 158.487 92.9419 155 89.6302L158.85 82.3726C161.465 85.0501 165.607 86.6002 170.256 86.6002C177.084 86.6002 181.298 83.2176 181.298 78.216C181.298 73.2126 177.229 70.0417 171.055 70.0417C168.294 70.0417 165.897 70.6068 163.717 71.7334L160.957 66.7309L175.777 50.2425H157.47V42H189.143V48.1991L175.268 62.5034C185.293 62.7142 191.903 68.9851 191.903 78.1451C191.903 88.1502 184.058 94.8435 171.418 94.8435Z" fill="#FFFFFE"/>
<path id="Fill 27" fill-rule="evenodd" clip-rule="evenodd" d="M196 67.6334C196 51.6392 207.406 41 224.477 41C233.267 41 240.386 43.8175 245.689 49.3842L239.223 55.7259C236.173 51.9209 231.015 49.2442 224.622 49.2442C213.798 49.2442 206.606 56.6417 206.606 67.7034C206.606 78.9068 213.943 86.3052 224.767 86.3052C232.031 86.3052 237.044 83.1343 240.459 78.061L247.36 84.051C242.202 90.8852 234.356 94.5485 224.549 94.5485C207.478 94.5485 196 83.7685 196 67.6334Z" fill="#FFFFFE"/>
<path id="Fill 28" fill-rule="evenodd" clip-rule="evenodd" d="M279.673 75.6584C279.673 68.7534 275.387 64.1734 268.994 64.1734C262.53 64.1734 258.243 68.7534 258.243 75.6584C258.243 82.5635 262.53 87.1435 268.994 87.1435C275.387 87.1435 279.673 82.5635 279.673 75.6584ZM248 75.6584C248 63.8917 256.427 56 268.994 56C281.489 56 289.916 63.8917 289.916 75.6584C289.916 87.496 281.489 95.3868 268.994 95.3868C256.427 95.3868 248 87.496 248 75.6584Z" fill="#FFFFFE"/>
<path id="Fill 29" fill-rule="evenodd" clip-rule="evenodd" d="M356.748 70.7967V94.6827H346.868V72.3467C346.868 67.4151 343.672 64.1734 338.804 64.1734C334.011 64.1734 330.814 67.4151 330.814 72.3467V94.6827H320.934V72.3467C320.934 67.4151 317.738 64.1734 312.872 64.1734C308.077 64.1734 304.88 67.4151 304.88 72.3467V94.6827H295V56.705H304.517L304.662 61.2142C307.423 57.7617 311.563 56 316.358 56C321.515 56 325.656 58.1142 328.199 61.7075C331.032 57.9734 335.608 56 340.839 56C350.356 56 356.748 61.9192 356.748 70.7967Z" fill="#FFFFFE"/>
<path id="Fill 30" fill-rule="evenodd" clip-rule="evenodd" d="M425.748 70.7967V94.6827H415.868V72.3467C415.868 67.4151 412.672 64.1734 407.804 64.1734C403.011 64.1734 399.814 67.4151 399.814 72.3467V94.6827H389.934V72.3467C389.934 67.4151 386.738 64.1734 381.871 64.1734C377.077 64.1734 373.88 67.4151 373.88 72.3467V94.6827H364V56.705H373.517L373.662 61.2142C376.422 57.7617 380.563 56 385.357 56C390.515 56 394.656 58.1142 397.199 61.7075C400.032 57.9734 404.608 56 409.839 56C419.356 56 425.748 61.9192 425.748 70.7967Z" fill="#FFFFFE"/>
<path id="Fill 31" fill-rule="evenodd" clip-rule="evenodd" d="M454.353 78.8293C451.81 78.3359 449.196 78.0543 446.943 78.0543C442.294 78.0543 439.315 80.1676 439.315 83.4093C439.315 86.5093 441.422 88.5527 445.418 88.5527C449.994 88.5527 454.28 85.0302 454.353 78.8293ZM464.232 70.7967V94.6827H454.717L454.498 89.2577C451.883 93.2027 447.38 95.3868 442.584 95.3868C434.448 95.3868 429 90.666 429 83.6201C429 76.2935 435.684 71.5018 445.708 71.5018C448.396 71.5018 451.375 71.7834 454.353 72.3467V71.6426C454.353 66.5692 450.866 63.5392 444.909 63.5392C441.204 63.5392 438.226 64.5959 435.756 66.5692L431.47 60.9325C435.684 57.6209 440.624 56 447.452 56C457.477 56 464.232 61.8484 464.232 70.7967Z" fill="#FFFFFE"/>
<path id="Fill 32" fill-rule="evenodd" clip-rule="evenodd" d="M469 90.8777L472.705 85.1001C476.41 87.2143 480.114 87.9176 483.965 87.9176C487.597 87.9176 490.067 86.4385 490.067 84.1135C490.067 81.7885 487.306 80.521 483.383 79.5343L480.114 78.6885C473.504 76.9967 469 74.5309 469 68.5417C469 61.0025 475.102 56 484.401 56C490.284 56 495.298 57.1975 499.147 59.7351L495.007 66.0059C491.883 64.3142 488.542 63.5392 485.055 63.5392C481.495 63.5392 479.025 64.8075 479.025 66.9926C479.025 69.2467 481.495 70.3034 484.908 71.1501L488.178 72.0651C494.862 73.7559 500.164 76.7151 500.164 83.4093C500.164 90.596 493.627 95.3868 483.819 95.3868C477.862 95.3868 472.56 93.9077 469 90.8777Z" fill="#FFFFFE"/>
</g>
</g>
</g>
</svg>
