<?xml version="1.0" encoding="UTF-8"?>
<svg width="20px" height="16px" viewBox="0 0 20 16" version="1.1" xmlns="http://www.w3.org/2000/svg" xmlns:xlink="http://www.w3.org/1999/xlink">
    <!-- Generator: Sketch 63.1 (92452) - https://sketch.com -->
    <title>medium</title>
    <desc>Created with Sketch.</desc>
    <g id="Page-1" stroke="none" stroke-width="1" fill="none" fill-rule="evenodd">
        <g id="ACALA-Copy-5" transform="translate(-396.000000, -9104.000000)">
            <g id="medium" transform="translate(396.000000, 9102.000000)">
                <g id="Group-98">
                    <rect id="Rectangle" x="0" y="0" width="20" height="20"></rect>
                    <path d="M18.4036458,3.88019638 L20,2.33780687 L20,2 L14.4713542,2 L10.53125,11.9090016 L6.04947916,2 L0.25260416,2 L0.25260416,2.33780687 L2.11718751,4.60556463 C2.29947917,4.77315875 2.39322918,5.01931259 2.36979167,5.26546643 L2.36979167,14.1767594 C2.42708334,14.4988543 2.32552084,14.8261866 2.10156251,15.0592471 L0,17.6333879 L0,17.9659575 L5.953125,17.9659575 L5.953125,17.6281506 L3.85416666,15.0618658 C3.62620807,14.8291392 3.51930629,14.5027755 3.56510417,14.1793781 L3.56510417,6.4700491 L8.79166668,17.9711948 L9.3984375,17.9711948 L13.8932292,6.4700491 L13.8932292,15.6327332 C13.8932292,15.8736498 13.8932292,15.9234042 13.7369792,16.0831424 L12.1197917,17.6621931 L12.1197917,18 L19.9635417,18 L19.9635417,17.6621931 L18.4036458,16.1198036 C18.2682292,16.0150573 18.1979167,15.8396072 18.2265625,15.6693944 L18.2265625,4.33060555 C18.1990927,4.15918652 18.2670319,3.98638412 18.4036458,3.88019638 L18.4036458,3.88019638 Z" id="Path" fill="#4E4E4E" fill-rule="nonzero"></path>
                </g>
            </g>
        </g>
    </g>
</svg>